{"title":"Moneyball 2011 BRRip XviD - ENL0AD3R","uid":6930647,"size":735267905,"categoryP":"video","categoryS":"movies","magnet":"?xt=urn:btih:0d604233910c1465be4369e3e67d5190d2f14173&amp;dn=Moneyball+2011+BRRip+XviD+-+ENL0AD3R&amp;tr=udp%3A%2F%2Ftracker.openbittorrent.com%3A80&amp;tr=udp%3A%2F%2Fopen.demonii.com%3A1337&amp;tr=udp%3A%2F%2Ftracker.coppersurfer.tk%3A6969&amp;tr=udp%3A%2F%2Fexodus.desync.com%3A6969","seeders":1,"leechers":0,"uploader":"wiiron","files":4,"time":1325651512,"description":"=+=+=+=+=+=+=+=+=+=+=+=+=+=+=+=+=+\nMoneyball 2011 BRRip XviD - ENL0AD3R\n=+=+=+=+=+=+=+=+=+=+=+=+=+=+=+=+=+\nVideo = 10\nAudio = 10\n\nScreens: &lt;a href=&quot;\nhttp://img21.imageshack.us/img21/2339/thumbs20120104010749.jpg&quot; rel=&quot;nofollow&quot; target=&quot;_NEW&quot;&gt;\nhttp://img21.imageshack.us/img21/2339/thumbs20120104010749.jpg&lt;/a&gt;\n\nIMDB: &lt;a href=&quot;\nhttp://www.imdb.com/title/tt1210166/&quot; rel=&quot;nofollow&quot; target=&quot;_NEW&quot;&gt;\nhttp://www.imdb.com/title/tt1210166/&lt;/a&gt;\n\n=+=+=+=+=+=+=+=+=+=+=+=+=+=+=+=+=+\nFILE INFO\n\n Format : AVI\n    Format/Info : Audio Video Interleave\n    File size : 701 MiB\n    Duration : 2h 13mn\n    Overall bit rate : 736 Kbps\n  Video #0\n    ID : 0\n    Format : MPEG-4 Visual\n    Format profile : AdvancedSimple@L5\n    Format settings, BVOP : Yes\n    Format settings, QPel : No\n    Format settings, GMC : No warppoints\n    Format settings, Matrix : Default (H.263)\n    Codec ID : XVID\n    Codec ID/Hint : XviD\n    Duration : 2h 13mn\n    Bit rate : 602 Kbps\n    Width : 720 pixels\n    Height : 384 pixels\n    Display aspect ratio : 1.875\n    Frame rate : 23.976 fps\n    Resolution : 24 bits\n    Colorimetry : 4:2:0\n    Scan type : Progressive\n    Bits/(Pixel*Frame) : 0.091\n    Stream size : 574 MiB (82%)\n    Writing library : XviD 1.2.1 (UTC 2008-12-04)\n  Audio #1\n    ID : 1\n    Format : MPEG Audio\n    Format version : Version 1\n    Format profile : Layer 3\n    Codec ID : 55\n    Codec ID/Hint : MP3\n    Duration : 2h 13mn\n    Bit rate mode : Constant\n    Bit rate : 128 Kbps\n    Channel(s) : 2 channels\n    Sampling rate : 48.0 KHz\n    Resolution : 16 bits\n    Stream size : 122 MiB (17%)\n    Alignment : Aligned on interleaves\n    Interleave, duration : 167 ms (4.00 video frames)\n    Interleave, preload duration : 216 ms\n    Title : avs720-moneyball720p\n    Writing library : LAME3.98r","torrent":{"xt":"urn:btih:0d604233910c1465be4369e3e67d5190d2f14173","amp;dn":"Moneyball+2011+BRRip+XviD+-+ENL0AD3R","amp;tr":["udp%3A%2F%2Ftracker.openbittorrent.com%3A80","udp%3A%2F%2Fopen.demonii.com%3A1337","udp%3A%2F%2Ftracker.coppersurfer.tk%3A6969","udp%3A%2F%2Fexodus.desync.com%3A6969"],"infoHash":"0d604233910c1465be4369e3e67d5190d2f14173","infoHashBuffer":{"type":"Buffer","data":[13,96,66,51,145,12,20,101,190,67,105,227,230,125,81,144,210,241,65,115]},"announce":[],"urlList":[]}}